if (_typeface_js && _typeface_js.loadFace) _typeface_js.loadFace({"glyphs":{"S":{"x_min":51.71875,"x_max":450.53125,"ha":513,"o":"m 251 979 b 55 738 114 977 55 880 b 420 233 55 470 420 479 b 250 22 420 115 375 22 b 80 233 125 22 80 115 l 80 281 l 51 281 l 51 234 b 250 -6 51 100 106 -6 b 450 234 396 -6 450 100 b 85 740 450 498 85 491 b 253 951 85 855 127 951 b 419 738 377 951 419 854 l 419 719 l 449 719 l 449 737 b 251 979 449 870 396 979 "},"/":{"x_min":49,"x_max":451.890625,"ha":511,"o":"m 424 972 l 49 0 l 76 0 l 451 972 l 424 972 "},"K":{"x_min":54.4375,"x_max":495.4375,"ha":557,"o":"m 462 0 l 495 0 l 175 512 l 470 972 l 438 972 l 84 423 l 84 972 l 54 972 l 54 0 l 84 0 l 84 372 l 156 483 l 462 0 "},"7":{"x_min":53.078125,"x_max":451.890625,"ha":515,"o":"m 136 0 l 167 0 l 451 944 l 451 973 l 53 973 l 53 944 l 420 944 l 136 0 "},"d":{"x_min":54.4375,"x_max":460.0625,"ha":522,"o":"m 54 972 l 54 0 l 254 0 b 460 241 398 0 460 104 l 460 729 b 253 972 460 868 398 972 l 54 972 m 84 29 l 84 943 l 253 943 b 430 730 379 943 430 852 l 430 240 b 253 29 430 119 381 29 l 84 29 "},",":{"x_min":57.171875,"x_max":102.078125,"ha":160,"o":"m 57 -93 l 72 -93 l 102 1 l 102 112 l 72 112 l 72 0 l 57 -93 "},"Y":{"x_min":49,"x_max":526.75,"ha":586,"o":"m 270 0 l 300 0 l 300 393 l 526 972 l 495 972 l 287 434 l 78 972 l 49 972 l 270 393 l 270 0 "},"E":{"x_min":54.4375,"x_max":417.859375,"ha":479,"o":"m 84 506 l 84 943 l 417 943 l 417 972 l 54 972 l 54 0 l 417 0 l 417 29 l 84 29 l 84 479 l 364 479 l 364 506 l 84 506 "},"y":{"x_min":49,"x_max":526.75,"ha":586,"o":"m 270 0 l 300 0 l 300 393 l 526 972 l 495 972 l 287 434 l 78 972 l 49 972 l 270 393 l 270 0 "},"\"":{"x_min":54.4375,"x_max":164.6875,"ha":224,"o":"m 54 973 l 57 750 l 81 750 l 84 973 l 54 973 m 136 973 l 138 750 l 161 750 l 164 973 l 136 973 "},"g":{"x_min":53.078125,"x_max":451.890625,"ha":515,"o":"m 251 979 b 53 733 107 979 53 868 l 53 238 b 251 -6 53 104 107 -6 b 451 238 397 -6 451 104 l 451 486 l 273 486 l 273 458 l 421 458 l 421 237 b 253 22 421 119 378 22 b 83 237 126 22 83 119 l 83 734 b 253 951 83 852 126 951 b 421 734 378 951 421 852 l 421 669 l 451 669 l 451 733 b 251 979 451 868 397 979 "},"e":{"x_min":54.4375,"x_max":417.859375,"ha":479,"o":"m 84 506 l 84 943 l 417 943 l 417 972 l 54 972 l 54 0 l 417 0 l 417 29 l 84 29 l 84 479 l 364 479 l 364 506 l 84 506 "},"J":{"x_min":49,"x_max":289.921875,"ha":350,"o":"m 49 0 b 108 1 70 -1 89 0 b 289 237 224 9 289 76 l 289 972 l 259 972 l 259 236 b 106 30 259 100 212 40 b 49 29 88 29 69 27 l 49 0 "},"|":{"x_min":93.921875,"x_max":121.140625,"ha":218,"o":"m 93 984 l 93 -11 l 121 -11 l 121 984 l 93 984 "},"^":{"x_min":52,"x_max":512,"ha":575,"o":"m 282 941 l 483 542 l 512 542 l 295 972 l 268 972 l 52 542 l 80 542 l 282 941 "},"q":{"x_min":53.078125,"x_max":510.421875,"ha":536,"o":"m 255 979 b 53 733 110 979 53 869 l 53 238 b 255 -6 53 102 110 -6 b 389 40 314 -6 357 11 b 495 -13 412 1 447 -13 l 510 -13 l 510 13 l 495 13 b 408 59 457 13 428 25 b 460 238 443 104 460 166 l 460 733 b 255 979 460 869 401 979 m 255 951 b 430 734 382 951 430 854 l 430 237 b 255 20 430 118 382 20 b 83 237 129 20 83 118 l 83 734 b 255 951 83 854 129 951 "},"b":{"x_min":54.4375,"x_max":447.8125,"ha":510,"o":"m 54 972 l 54 0 l 246 0 b 447 223 390 0 447 86 l 447 309 b 292 518 447 422 405 501 b 428 708 400 534 428 600 l 428 770 b 245 972 428 901 383 972 l 54 972 m 84 530 l 84 943 l 245 943 b 398 769 364 943 398 883 l 398 704 b 208 530 398 562 340 530 l 84 530 m 84 29 l 84 502 l 221 502 b 417 311 352 502 417 451 l 417 223 b 246 29 417 101 371 29 l 84 29 "},"D":{"x_min":54.4375,"x_max":460.0625,"ha":522,"o":"m 54 972 l 54 0 l 254 0 b 460 241 398 0 460 104 l 460 729 b 253 972 460 868 398 972 l 54 972 m 84 29 l 84 943 l 253 943 b 430 730 379 943 430 852 l 430 240 b 253 29 430 119 381 29 l 84 29 "},"z":{"x_min":51.6875,"x_max":484.671875,"ha":549,"o":"m 477 29 l 83 29 l 484 941 l 484 972 l 70 972 l 70 943 l 452 943 l 51 29 l 51 0 l 477 0 l 477 29 "},"w":{"x_min":50,"x_max":790,"ha":858,"o":"m 428 900 l 581 0 l 621 0 l 790 972 l 762 972 l 602 47 l 447 966 l 410 966 l 245 42 l 79 972 l 50 972 l 221 0 l 264 0 l 428 900 "},"$":{"x_min":53.078125,"x_max":451.890625,"ha":514,"o":"m 266 1065 l 240 1065 l 240 977 b 57 737 110 969 57 873 b 421 234 57 469 421 480 b 251 23 421 116 378 23 b 83 234 126 23 83 116 l 83 284 l 53 284 l 53 236 b 240 -5 53 105 104 0 l 240 -84 l 266 -84 l 266 -5 b 451 236 401 1 451 106 b 87 738 451 500 87 488 b 254 948 87 854 130 948 b 421 737 378 948 421 852 l 421 718 l 450 718 l 450 736 b 266 977 450 863 401 970 l 266 1065 "},"\\":{"x_min":49,"x_max":452,"ha":511,"o":"m 49 972 l 424 0 l 452 0 l 76 972 l 49 972 "},"~":{"x_min":49,"x_max":491,"ha":551,"o":"m 167 540 b 49 455 115 540 78 505 l 66 441 b 165 514 91 482 122 514 b 387 428 243 516 307 424 b 491 513 433 431 465 467 l 471 528 b 386 455 450 491 425 456 b 167 540 315 452 250 542 "},"-":{"x_min":53.078125,"x_max":295.359375,"ha":356,"o":"m 53 472 l 295 472 l 295 500 l 53 500 l 53 472 "},"Q":{"x_min":53.078125,"x_max":510.421875,"ha":572,"o":"m 255 979 b 53 733 110 979 53 869 l 53 238 b 255 -6 53 102 110 -6 b 389 40 314 -6 357 11 b 495 -13 412 1 447 -13 l 510 -13 l 510 13 l 495 13 b 408 59 457 13 428 25 b 460 238 443 104 460 166 l 460 733 b 255 979 460 869 401 979 m 255 951 b 430 734 382 951 430 854 l 430 237 b 255 20 430 118 382 20 b 83 237 129 20 83 118 l 83 734 b 255 951 83 854 129 951 "},"M":{"x_min":54.4375,"x_max":615.21875,"ha":683,"o":"m 585 926 l 585 0 l 615 0 l 615 972 l 568 972 l 334 50 l 100 972 l 54 972 l 54 0 l 81 0 l 81 926 l 317 2 l 351 2 l 585 926 "},"C":{"x_min":53.078125,"x_max":451.890625,"ha":514,"o":"m 251 979 b 53 733 107 979 53 868 l 53 238 b 251 -6 53 104 107 -6 b 451 238 397 -6 451 104 l 451 344 l 421 344 l 421 237 b 253 22 421 119 378 22 b 83 237 126 22 83 119 l 83 734 b 253 951 83 852 126 951 b 421 734 378 951 421 852 l 421 658 l 451 658 l 451 733 b 251 979 451 868 397 979 "},"[":{"x_min":55.8125,"x_max":255.890625,"ha":313,"o":"m 85 27 l 85 945 l 255 945 l 255 973 l 55 973 l 55 0 l 255 0 l 255 27 l 85 27 "},"L":{"x_min":54.4375,"x_max":404.25,"ha":463,"o":"m 404 0 l 404 29 l 84 29 l 84 972 l 54 972 l 54 0 l 404 0 "},"!":{"x_min":54.4375,"x_max":84.390625,"ha":142,"o":"m 58 215 l 80 215 l 84 427 l 84 973 l 54 973 l 54 427 l 58 215 m 54 111 l 54 0 l 84 0 l 84 111 l 54 111 "}," ":{"x_min":0,"x_max":0,"ha":215},"{":{"x_min":50.0625,"x_max":297.78125,"ha":356,"o":"m 297 945 l 297 973 l 256 973 b 149 833 172 973 153 909 l 139 640 b 50 502 137 562 131 519 l 50 469 b 139 333 131 454 137 409 l 149 140 b 256 0 153 62 172 0 l 297 0 l 297 27 l 263 27 b 178 148 191 27 182 80 l 168 336 b 80 486 165 408 157 463 b 168 636 157 509 165 565 l 178 825 b 263 945 182 891 191 945 l 297 945 "},"X":{"x_min":50,"x_max":554,"ha":617,"o":"m 521 0 l 554 0 l 322 505 l 539 972 l 509 972 l 303 532 l 97 972 l 66 972 l 282 505 l 50 0 l 81 0 l 300 477 l 521 0 "},"P":{"x_min":54.4375,"x_max":439.640625,"ha":500,"o":"m 54 972 l 54 0 l 84 0 l 84 412 l 220 412 b 439 640 371 412 439 486 l 439 737 b 242 972 439 873 389 972 l 54 972 m 84 441 l 84 943 l 242 943 b 409 738 370 943 409 858 l 409 638 b 220 441 409 501 353 441 l 84 441 "},"%":{"x_min":53.078125,"x_max":759.5,"ha":829,"o":"m 175 973 b 53 815 84 973 53 898 l 53 529 b 175 370 53 445 84 370 b 299 529 268 370 299 445 l 299 815 b 175 973 299 898 268 973 m 581 973 l 205 0 l 228 0 l 604 973 l 581 973 m 175 951 b 274 815 253 951 274 884 l 274 527 b 175 393 274 459 253 393 b 76 527 98 393 76 459 l 76 815 b 175 951 76 884 98 951 m 637 598 b 513 440 544 598 513 522 l 513 158 b 637 -1 513 75 544 -1 b 759 158 729 -1 759 75 l 759 440 b 637 598 759 522 729 598 m 637 575 b 736 440 714 575 736 509 l 736 156 b 637 22 736 88 714 22 b 537 156 559 22 537 88 l 537 440 b 637 575 537 509 559 575 "},"#":{"x_min":49.984375,"x_max":514.015625,"ha":576,"o":"m 512 683 l 514 706 l 426 706 l 454 973 l 426 973 l 399 706 l 213 706 l 240 973 l 213 973 l 187 706 l 86 706 l 85 683 l 184 683 l 150 344 l 51 344 l 49 320 l 147 320 l 113 0 l 141 0 l 173 320 l 361 320 l 327 0 l 354 0 l 387 320 l 475 320 l 477 344 l 390 344 l 424 683 l 512 683 m 362 344 l 176 344 l 210 683 l 398 683 l 362 344 "},"_":{"x_min":47.640625,"x_max":645.171875,"ha":719,"o":"m 47 -13 l 47 -38 l 645 -38 l 645 -13 l 47 -13 "},"+":{"x_min":51.71875,"x_max":472.3125,"ha":535,"o":"m 472 473 l 472 498 l 274 498 l 274 702 l 250 702 l 250 498 l 51 498 l 51 473 l 250 473 l 250 266 l 274 266 l 274 473 l 472 473 "},")":{"x_min":50.359375,"x_max":249.078125,"ha":311,"o":"m 50 973 l 50 945 l 73 945 b 219 756 191 945 219 868 l 219 216 b 73 27 219 104 193 27 l 50 27 l 50 0 l 73 0 b 249 216 213 0 249 87 l 249 756 b 73 973 249 886 212 973 l 50 973 "},"'":{"x_min":54.4375,"x_max":83.03125,"ha":140,"o":"m 54 973 l 55 750 l 80 750 l 83 973 l 54 973 "},"}":{"x_min":50.5625,"x_max":299.65625,"ha":356,"o":"m 50 973 l 50 945 l 84 945 b 170 825 156 945 166 891 l 179 636 b 268 486 182 565 190 509 b 179 336 190 463 182 408 l 170 148 b 84 27 166 80 156 27 l 50 27 l 50 0 l 91 0 b 198 140 177 0 194 62 l 208 333 b 299 469 211 409 216 454 l 299 502 b 208 640 216 519 211 562 l 198 833 b 91 973 194 909 177 973 l 50 973 "},"a":{"x_min":50,"x_max":558,"ha":621,"o":"m 472 229 l 528 0 l 558 0 l 322 974 l 280 974 l 50 0 l 77 0 l 133 229 l 472 229 m 300 938 l 466 257 l 138 257 l 300 938 "},"T":{"x_min":29.9375,"x_max":476.390625,"ha":519,"o":"m 268 0 l 268 943 l 476 943 l 476 972 l 29 972 l 29 943 l 238 943 l 238 0 l 268 0 "},"=":{"x_min":53.078125,"x_max":315.78125,"ha":376,"o":"m 53 598 l 53 575 l 315 575 l 315 598 l 53 598 m 53 450 l 53 426 l 315 426 l 315 450 l 53 450 "},"N":{"x_min":54.4375,"x_max":460.0625,"ha":525,"o":"m 83 927 l 423 0 l 460 0 l 460 972 l 431 972 l 431 63 l 96 972 l 54 972 l 54 0 l 83 0 l 83 927 "},"2":{"x_min":54.4375,"x_max":451.890625,"ha":514,"o":"m 253 979 b 54 727 106 979 54 862 l 54 676 l 83 676 l 83 729 b 251 951 83 845 123 951 b 421 729 383 951 421 851 b 54 20 421 468 54 384 l 54 0 l 446 0 l 446 29 l 84 29 l 84 34 b 451 730 89 369 451 459 b 253 979 451 868 402 979 "},"j":{"x_min":49,"x_max":289.921875,"ha":350,"o":"m 49 0 b 108 1 70 -1 89 0 b 289 237 224 9 289 76 l 289 972 l 259 972 l 259 236 b 106 30 259 100 212 40 b 49 29 88 29 69 27 l 49 0 "},"Z":{"x_min":51.6875,"x_max":484.671875,"ha":549,"o":"m 477 29 l 83 29 l 484 941 l 484 972 l 70 972 l 70 943 l 452 943 l 51 29 l 51 0 l 477 0 l 477 29 "},"":{"x_min":62.609375,"x_max":106.171875,"ha":0,"o":"m 106 -155 l 106 -47 l 78 -47 l 78 -158 l 85 -158 l 62 -243 l 77 -243 l 106 -155 "},"u":{"x_min":53.078125,"x_max":446.4375,"ha":510,"o":"m 83 972 l 53 972 l 53 240 b 250 -6 53 106 104 -6 b 446 240 394 -6 446 106 l 446 972 l 417 972 l 417 238 b 250 20 417 122 377 20 b 83 238 123 20 83 122 l 83 972 "},"1":{"x_min":65.328125,"x_max":254.53125,"ha":331,"o":"m 224 0 l 254 0 l 254 974 l 225 974 b 65 833 200 899 149 842 l 65 806 b 224 914 138 814 193 850 l 224 0 "},"k":{"x_min":54.4375,"x_max":495.4375,"ha":557,"o":"m 462 0 l 495 0 l 175 512 l 470 972 l 438 972 l 84 423 l 84 972 l 54 972 l 54 0 l 84 0 l 84 372 l 156 483 l 462 0 "},"<":{"x_min":52.6875,"x_max":436.53125,"ha":501,"o":"m 436 308 l 84 486 l 436 663 l 436 691 l 52 498 l 52 473 l 436 280 l 436 308 "},"t":{"x_min":25.859375,"x_max":470.9375,"ha":510,"o":"m 262 0 l 262 943 l 470 943 l 470 972 l 25 972 l 25 943 l 232 943 l 232 0 l 262 0 "},"W":{"x_min":50,"x_max":790,"ha":858,"o":"m 428 900 l 581 0 l 621 0 l 790 972 l 762 972 l 602 47 l 447 966 l 410 966 l 245 42 l 79 972 l 50 972 l 221 0 l 264 0 l 428 900 "},"v":{"x_min":50,"x_max":556,"ha":619,"o":"m 50 972 l 282 0 l 327 0 l 556 972 l 527 972 l 304 34 l 81 972 l 50 972 "},">":{"x_min":54.4375,"x_max":438.28125,"ha":501,"o":"m 54 280 l 438 473 l 438 498 l 54 691 l 54 663 l 406 486 l 54 308 l 54 280 "},"s":{"x_min":51.71875,"x_max":450.53125,"ha":513,"o":"m 251 979 b 55 738 114 977 55 880 b 420 233 55 470 420 479 b 250 22 420 115 375 22 b 80 233 125 22 80 115 l 80 281 l 51 281 l 51 234 b 250 -6 51 100 106 -6 b 450 234 396 -6 450 100 b 85 740 450 498 85 491 b 253 951 85 855 127 951 b 419 738 377 951 419 854 l 419 719 l 449 719 l 449 737 b 251 979 449 870 396 979 "},"B":{"x_min":54.4375,"x_max":447.8125,"ha":510,"o":"m 54 972 l 54 0 l 246 0 b 447 223 390 0 447 86 l 447 309 b 292 518 447 422 405 501 b 428 708 400 534 428 600 l 428 770 b 245 972 428 901 383 972 l 54 972 m 84 530 l 84 943 l 245 943 b 398 769 364 943 398 883 l 398 704 b 208 530 398 562 340 530 l 84 530 m 84 29 l 84 502 l 221 502 b 417 311 352 502 417 451 l 417 223 b 246 29 417 101 371 29 l 84 29 "},"?":{"x_min":52.078125,"x_max":444.078125,"ha":506,"o":"m 248 979 b 52 727 101 979 52 861 l 52 676 l 80 676 l 80 729 b 248 951 80 844 120 951 b 414 731 377 951 414 850 b 209 269 414 534 209 480 b 216 218 209 251 212 234 l 244 218 b 237 268 239 233 237 252 b 444 730 237 469 444 526 b 248 979 444 866 397 979 m 214 111 l 214 0 l 244 0 l 244 111 l 214 111 "},"H":{"x_min":54.4375,"x_max":458.6875,"ha":524,"o":"m 428 472 l 428 0 l 458 0 l 458 972 l 428 972 l 428 500 l 84 500 l 84 972 l 54 972 l 54 0 l 84 0 l 84 472 l 428 472 "},"c":{"x_min":53.078125,"x_max":451.890625,"ha":514,"o":"m 251 979 b 53 733 107 979 53 868 l 53 238 b 251 -6 53 104 107 -6 b 451 238 397 -6 451 104 l 451 344 l 421 344 l 421 237 b 253 22 421 119 378 22 b 83 237 126 22 83 119 l 83 734 b 253 951 83 852 126 951 b 421 734 378 951 421 852 l 421 658 l 451 658 l 451 733 b 251 979 451 868 397 979 "},"&":{"x_min":54.4375,"x_max":494.078125,"ha":554,"o":"m 405 943 l 405 972 l 284 972 b 54 730 129 972 54 884 l 54 704 b 186 508 54 615 95 530 b 54 306 98 480 54 397 l 54 218 b 240 -6 54 88 108 -6 b 408 98 314 -6 379 27 b 431 0 408 61 413 31 l 464 0 b 436 131 436 41 436 83 l 436 493 l 494 493 l 494 520 l 436 520 l 436 629 l 406 629 l 406 520 l 230 520 b 84 700 136 527 84 608 l 84 731 b 284 943 84 869 149 943 l 405 943 m 406 493 l 406 176 b 247 20 406 80 338 20 b 84 219 130 20 84 106 l 84 308 b 238 493 84 408 140 484 l 406 493 "},"I":{"x_min":54.4375,"x_max":84.390625,"ha":142,"o":"m 54 972 l 54 0 l 84 0 l 84 972 l 54 972 "},"G":{"x_min":53.078125,"x_max":451.890625,"ha":515,"o":"m 251 979 b 53 733 107 979 53 868 l 53 238 b 251 -6 53 104 107 -6 b 451 238 397 -6 451 104 l 451 486 l 273 486 l 273 458 l 421 458 l 421 237 b 253 22 421 119 378 22 b 83 237 126 22 83 119 l 83 734 b 253 951 83 852 126 951 b 421 734 378 951 421 852 l 421 669 l 451 669 l 451 733 b 251 979 451 868 397 979 "},"(":{"x_min":55.8125,"x_max":254.53125,"ha":311,"o":"m 254 945 l 254 973 l 230 973 b 55 756 91 973 55 886 l 55 216 b 230 0 55 87 89 0 l 254 0 l 254 27 l 231 27 b 85 216 110 27 85 104 l 85 756 b 231 945 85 868 111 945 l 254 945 "},"`":{"x_min":54,"x_max":189,"ha":246,"o":"m 54 1177 l 160 1054 l 189 1054 l 89 1177 l 54 1177 "},"U":{"x_min":53.078125,"x_max":446.4375,"ha":510,"o":"m 83 972 l 53 972 l 53 240 b 250 -6 53 106 104 -6 b 446 240 394 -6 446 106 l 446 972 l 417 972 l 417 238 b 250 20 417 122 377 20 b 83 238 123 20 83 122 l 83 972 "},"F":{"x_min":54.4375,"x_max":404.25,"ha":463,"o":"m 84 483 l 84 943 l 404 943 l 404 972 l 54 972 l 54 0 l 84 0 l 84 454 l 351 454 l 351 483 l 84 483 "},"r":{"x_min":54.4375,"x_max":465.5,"ha":528,"o":"m 54 972 l 54 0 l 84 0 l 84 448 l 201 448 b 409 268 325 448 409 411 l 409 115 b 432 0 409 73 413 30 l 465 0 b 439 115 443 30 439 77 l 439 268 b 288 462 439 375 394 445 b 439 666 393 481 439 547 l 439 754 b 243 972 439 887 385 972 l 54 972 m 84 477 l 84 943 l 242 943 b 409 751 364 943 409 869 l 409 662 b 201 477 409 512 333 477 l 84 477 "},":":{"x_min":54.4375,"x_max":84.390625,"ha":142,"o":"m 54 641 l 54 529 l 84 529 l 84 641 l 54 641 m 54 112 l 54 0 l 84 0 l 84 112 l 54 112 "},"x":{"x_min":50,"x_max":554,"ha":617,"o":"m 521 0 l 554 0 l 322 505 l 539 972 l 509 972 l 303 532 l 97 972 l 66 972 l 282 505 l 50 0 l 81 0 l 300 477 l 521 0 "},"*":{"x_min":59.890625,"x_max":475.03125,"ha":546,"o":"m 475 789 l 466 815 l 276 757 l 280 962 l 253 962 l 258 757 l 68 819 l 59 793 l 253 740 l 134 575 l 156 561 l 266 729 l 378 560 l 398 575 l 280 740 l 475 789 "},"V":{"x_min":50,"x_max":556,"ha":619,"o":"m 50 972 l 282 0 l 327 0 l 556 972 l 527 972 l 304 34 l 81 972 l 50 972 "},"h":{"x_min":54.4375,"x_max":458.6875,"ha":524,"o":"m 428 472 l 428 0 l 458 0 l 458 972 l 428 972 l 428 500 l 84 500 l 84 972 l 54 972 l 54 0 l 84 0 l 84 472 l 428 472 "},"0":{"x_min":53.078125,"x_max":458.6875,"ha":522,"o":"m 53 238 b 255 -6 53 102 110 -6 b 458 238 401 -6 458 102 l 458 733 b 255 979 458 870 401 979 b 53 733 110 979 53 870 l 53 238 m 83 734 b 255 951 83 854 129 951 b 428 734 382 951 428 854 l 428 238 b 255 20 428 118 382 20 b 83 238 129 20 83 118 l 83 734 "},".":{"x_min":54.4375,"x_max":84.390625,"ha":142,"o":"m 54 112 l 54 0 l 84 0 l 84 112 l 54 112 "},"@":{"x_min":51.21875,"x_max":886.609375,"ha":956,"o":"m 529 1008 b 51 394 186 1008 51 705 b 469 -58 51 109 180 -58 b 713 12 556 -58 640 -38 l 715 44 b 471 -31 646 -11 555 -31 b 78 393 199 -31 78 123 b 528 981 78 694 203 981 b 860 620 758 981 860 845 b 670 234 862 491 824 236 b 608 336 615 234 604 290 l 649 730 l 621 730 l 611 636 b 483 738 595 702 551 737 b 308 540 372 738 319 648 l 295 404 b 427 191 284 300 311 193 b 580 305 502 191 552 236 b 664 206 581 252 607 206 b 886 622 832 208 886 461 b 529 1008 886 858 777 1008 m 488 709 b 601 538 586 709 611 626 l 586 404 b 435 219 578 311 536 219 b 322 401 333 219 313 315 l 335 537 b 488 709 346 629 389 709 "},"f":{"x_min":54.4375,"x_max":404.25,"ha":463,"o":"m 84 483 l 84 943 l 404 943 l 404 972 l 54 972 l 54 0 l 84 0 l 84 454 l 351 454 l 351 483 l 84 483 "},";":{"x_min":57.171875,"x_max":102.078125,"ha":160,"o":"m 72 641 l 72 529 l 102 529 l 102 641 l 72 641 m 57 -93 l 72 -93 l 102 1 l 102 112 l 72 112 l 72 0 l 57 -93 "},"i":{"x_min":54.4375,"x_max":84.390625,"ha":142,"o":"m 54 972 l 54 0 l 84 0 l 84 972 l 54 972 "},"6":{"x_min":53.078125,"x_max":460.0625,"ha":524,"o":"m 257 979 b 53 733 110 979 53 870 l 53 238 b 257 -6 53 102 110 -6 b 460 238 402 -6 460 102 l 460 336 b 264 579 460 470 405 579 b 83 463 171 579 121 545 l 83 731 b 257 951 83 854 129 951 b 427 740 383 951 427 858 l 427 731 l 455 731 l 455 738 b 257 979 455 875 401 979 m 257 550 b 430 334 383 550 430 452 l 430 238 b 257 22 430 118 383 22 b 83 238 129 22 83 118 l 83 334 b 257 550 83 448 129 550 "},"A":{"x_min":50,"x_max":558,"ha":621,"o":"m 472 229 l 528 0 l 558 0 l 322 974 l 280 974 l 50 0 l 77 0 l 133 229 l 472 229 m 300 938 l 466 257 l 138 257 l 300 938 "},"n":{"x_min":54.4375,"x_max":460.0625,"ha":525,"o":"m 83 927 l 423 0 l 460 0 l 460 972 l 431 972 l 431 63 l 96 972 l 54 972 l 54 0 l 83 0 l 83 927 "},"O":{"x_min":53.078125,"x_max":458.6875,"ha":522,"o":"m 53 238 b 254 -6 53 77 122 -6 b 458 238 389 -6 458 77 l 458 733 b 254 979 458 894 389 979 b 53 733 122 979 53 894 l 53 238 m 83 734 b 254 951 83 877 141 951 b 428 734 368 951 428 877 l 428 237 b 254 20 428 94 368 20 b 83 237 141 20 83 94 l 83 734 "},"3":{"x_min":53.078125,"x_max":451.890625,"ha":515,"o":"m 253 979 b 53 733 107 979 53 869 l 53 705 l 83 705 l 83 734 b 251 951 83 854 125 951 b 421 733 378 951 421 854 l 421 705 b 265 520 421 606 362 529 l 194 520 l 194 493 l 264 493 b 421 313 366 487 421 419 l 421 240 b 251 20 421 119 378 20 b 83 238 125 20 83 119 l 83 284 l 53 284 l 53 238 b 253 -6 53 102 107 -6 b 451 238 398 -6 451 102 l 451 313 b 315 508 451 408 406 484 b 451 709 401 536 451 616 l 451 733 b 253 979 451 869 398 979 "},"]":{"x_min":51.71875,"x_max":251.8125,"ha":313,"o":"m 51 27 l 51 0 l 251 0 l 251 973 l 51 973 l 51 945 l 221 945 l 221 27 l 51 27 "},"m":{"x_min":54.4375,"x_max":615.21875,"ha":683,"o":"m 585 926 l 585 0 l 615 0 l 615 972 l 568 972 l 334 50 l 100 972 l 54 972 l 54 0 l 81 0 l 81 926 l 317 2 l 351 2 l 585 926 "},"9":{"x_min":53.078125,"x_max":458.6875,"ha":524,"o":"m 255 980 b 53 733 110 980 53 870 l 53 637 b 249 394 53 502 107 394 b 428 512 340 394 402 433 l 428 241 b 255 20 428 118 382 20 b 81 234 129 20 81 115 l 81 243 l 53 243 l 53 236 b 255 -6 53 98 111 -6 b 458 240 402 -6 458 102 l 458 733 b 255 980 458 870 401 980 m 255 951 b 428 734 382 951 428 854 l 428 638 b 255 422 428 519 382 422 b 83 638 129 422 83 519 l 83 734 b 255 951 83 854 129 951 "},"l":{"x_min":54.4375,"x_max":404.25,"ha":463,"o":"m 404 0 l 404 29 l 84 29 l 84 972 l 54 972 l 54 0 l 404 0 "},"8":{"x_min":51.71875,"x_max":470.9375,"ha":535,"o":"m 261 979 b 51 747 121 979 51 886 l 51 715 b 193 508 51 611 89 531 b 51 297 87 483 51 405 l 51 231 b 261 -6 51 93 117 -6 b 470 231 405 -6 470 93 l 470 297 b 333 508 470 402 435 484 b 470 715 432 530 470 613 l 470 747 b 261 979 470 886 402 979 m 261 951 b 441 747 382 951 441 869 l 441 712 b 261 520 441 588 382 520 b 81 712 141 520 81 588 l 81 747 b 261 951 81 869 140 951 m 261 493 b 441 300 385 493 441 426 l 441 231 b 261 20 441 108 386 20 b 81 231 137 20 81 108 l 81 300 b 261 493 81 426 138 493 "},"p":{"x_min":54.4375,"x_max":439.640625,"ha":499,"o":"m 54 972 l 54 0 l 84 0 l 84 412 l 220 412 b 439 640 371 412 439 486 l 439 737 b 242 972 439 873 389 972 l 54 972 m 84 441 l 84 943 l 242 943 b 409 738 370 943 409 858 l 409 638 b 220 441 409 501 353 441 l 84 441 "},"4":{"x_min":50.359375,"x_max":502.25,"ha":564,"o":"m 502 228 l 502 257 l 419 257 l 419 973 l 382 973 l 50 259 l 50 228 l 389 228 l 389 0 l 419 0 l 419 228 l 502 228 m 389 919 l 389 257 l 78 257 l 389 919 "},"R":{"x_min":54.4375,"x_max":465.5,"ha":528,"o":"m 54 972 l 54 0 l 84 0 l 84 448 l 201 448 b 409 268 325 448 409 411 l 409 115 b 432 0 409 73 413 30 l 465 0 b 439 115 443 30 439 77 l 439 268 b 288 462 439 375 394 445 b 439 666 393 481 439 547 l 439 754 b 243 972 439 887 385 972 l 54 972 m 84 477 l 84 943 l 242 943 b 409 751 364 943 409 869 l 409 662 b 201 477 409 512 333 477 l 84 477 "},"o":{"x_min":53.078125,"x_max":458.6875,"ha":522,"o":"m 53 238 b 254 -6 53 102 110 -6 b 458 238 401 -6 458 102 l 458 733 b 254 979 458 869 401 979 b 53 733 110 979 53 869 l 53 238 m 83 734 b 254 951 83 854 127 951 b 428 734 382 951 428 854 l 428 237 b 254 20 428 118 382 20 b 83 237 127 20 83 118 l 83 734 "},"5":{"x_min":53.078125,"x_max":451.890625,"ha":515,"o":"m 117 944 l 434 944 l 434 973 l 89 973 l 65 472 l 93 472 l 93 483 b 251 600 119 556 174 600 b 421 384 378 600 421 501 l 421 238 b 251 22 421 120 378 22 b 83 238 126 22 83 120 l 83 280 l 53 280 l 53 238 b 253 -6 53 104 108 -6 b 451 238 397 -6 451 104 l 451 386 b 259 629 451 518 400 629 b 98 543 186 629 134 602 l 117 944 "}}}
